{
  "accessors": [
    {
      "bufferView": 2,
      "componentType": 5126,
      "count": 8658,
      "max": [
        5.76611852645874,
        1.1614789962768555,
        18.48981285095215
      ],
      "min": [
        -5.637576103210449,
        -1.6013208627700806,
        -0.05662565678358078
      ],
      "type": "VEC3"
    },
    {
      "bufferView": 2,
      "byteOffset": 103896,
      "componentType": 5126,
      "count": 8658,
      "max": [
        0.9999515414237976,
        0.9997907280921936,
        0.9999758005142212
      ],
      "min": [
        -0.9999323487281799,
        -0.9999971985816956,
        -0.999995768070221
      ],
      "type": "VEC3"
    },
    {
      "bufferView": 1,
      "componentType": 5126,
      "count": 8658,
      "max": [
        0.9952830076217651,
        1.082419991493225
      ],
      "min": [
        0.13285000622272491,
        0.01077800989151001
      ],
      "type": "VEC2"
    },
    {
      "bufferView": 0,
      "componentType": 5125,
      "count": 27912,
      "type": "SCALAR"
    },
    {
      "bufferView": 2,
      "byteOffset": 207792,
      "componentType": 5126,
      "count": 1749,
      "max": [
        2.98805832862854,
        2.2623729705810547,
        18.45647430419922
      ],
      "min": [
        -2.8665733337402344,
        -1.417319655418396,
        8.034744262695313
      ],
      "type": "VEC3"
    },
    {
      "bufferView": 2,
      "byteOffset": 228780,
      "componentType": 5126,
      "count": 1749,
      "max": [
        0.9996585249900818,
        0.9986221194267273,
        0.9999998807907104
      ],
      "min": [
        -0.9999412894248962,
        -0.999798059463501,
        -0.9900858402252197
      ],
      "type": "VEC3"
    },
    {
      "bufferView": 1,
      "byteOffset": 69264,
      "componentType": 5126,
      "count": 1749,
      "max": [
        0.4800739884376526,
        0.9824860095977783
      ],
      "min": [
        0.006610990036278963,
        0.010699987411499023
      ],
      "type": "VEC2"
    },
    {
      "bufferView": 0,
      "byteOffset": 111648,
      "componentType": 5125,
      "count": 6636,
      "type": "SCALAR"
    }
  ],
  "asset": {
    "extras": {
      "author": "Omega Slender (https://sketchfab.com/omega_slender)",
      "license": "CC-BY-NC-ND-4.0 (http://creativecommons.org/licenses/by-nc-nd/4.0/)",
      "source": "https://sketchfab.com/3d-models/airi-akizuki-no-rigging-95b2e90868104c668b2ea53c6e3e030b",
      "title": "Airi Akizuki (No rigging)"
    },
    "generator": "Sketchfab-12.78.0",
    "version": "2.0"
  },
  "bufferViews": [
    {
      "buffer": 0,
      "byteLength": 138192,
      "name": "floatBufferViews",
      "target": 34963
    },
    {
      "buffer": 0,
      "byteLength": 83256,
      "byteOffset": 138192,
      "byteStride": 8,
      "name": "floatBufferViews",
      "target": 34962
    },
    {
      "buffer": 0,
      "byteLength": 249768,
      "byteOffset": 221448,
      "byteStride": 12,
      "name": "floatBufferViews",
      "target": 34962
    }
  ],
  "buffers": [
    {
      "byteLength": 471216,
      "uri": "scene.bin"
    }
  ],
  "extensionsUsed": [
    "KHR_materials_unlit"
  ],
  "images": [
    {
      "uri": "textures/Body_baseColor.png"
    }
  ],
  "materials": [
    {
      "doubleSided": true,
      "extensions": {
        "KHR_materials_unlit": {}
      },
      "name": "Body",
      "pbrMetallicRoughness": {
        "baseColorTexture": {
          "index": 0
        },
        "metallicFactor": 0.0
      }
    },
    {
      "doubleSided": true,
      "extensions": {
        "KHR_materials_unlit": {}
      },
      "name": "Hair",
      "pbrMetallicRoughness": {
        "baseColorTexture": {
          "index": 0
        },
        "metallicFactor": 0.0
      }
    }
  ],
  "meshes": [
    {
      "name": "Body_Body_0",
      "primitives": [
        {
          "attributes": {
            "NORMAL": 1,
            "POSITION": 0,
            "TEXCOORD_0": 2
          },
          "indices": 3,
          "material": 0,
          "mode": 4
        }
      ]
    },
    {
      "name": "Body_Hair_0",
      "primitives": [
        {
          "attributes": {
            "NORMAL": 5,
            "POSITION": 4,
            "TEXCOORD_0": 6
          },
          "indices": 7,
          "material": 1,
          "mode": 4
        }
      ]
    }
  ],
  "nodes": [
    {
      "children": [
        1
      ],
      "matrix": [
        0.0833333358168602,
        0.0,
        0.0,
        0.0,
        0.0,
        1.8503717628539684e-17,
        -0.0833333358168602,
        0.0,
        0.0,
        0.0833333358168602,
        1.8503717628539684e-17,
        0.0,
        0.0,
        2.465190328815662e-32,
        -1.1102230246251565e-16,
        1.0
      ],
      "name": "Sketchfab_model"
    },
    {
      "children": [
        2
      ],
      "matrix": [
        0.009999999776482582,
        0.0,
        0.0,
        0.0,
        0.0,
        0.0,
        0.009999999776482582,
        0.0,
        0.0,
        -0.009999999776482582,
        0.0,
        0.0,
        0.0,
        0.0,
        0.0,
        1.0
      ],
      "name": "Airi Akizuki.fbx"
    },
    {
      "children": [
        3
      ],
      "name": "RootNode"
    },
    {
      "children": [
        4,
        5
      ],
      "matrix": [
        100.0,
        0.0,
        0.0,
        0.0,
        0.0,
        2.220446049250313e-14,
        -100.0,
        0.0,
        0.0,
        100.0,
        2.220446049250313e-14,
        0.0,
        0.0,
        0.0,
        0.0,
        1.0
      ],
      "name": "Body"
    },
    {
      "mesh": 0,
      "name": "Body_Body_0"
    },
    {
      "mesh": 1,
      "name": "Body_Hair_0"
    }
  ],
  "samplers": [
    {
      "magFilter": 9729,
      "minFilter": 9987,
      "wrapS": 10497,
      "wrapT": 10497
    }
  ],
  "scene": 0,
  "scenes": [
    {
      "name": "Sketchfab_Scene",
      "nodes": [
        0
      ]
    }
  ],
  "textures": [
    {
      "sampler": 0,
      "source": 0
    }
  ]
}
